<svg xmlns="http://www.w3.org/2000/svg" width="420.823" height="80.014" viewBox="0 0 420.823 80.014"><g transform="translate(-856 -1416)" style="isolation:isolate"><g transform="translate(856 1416)"><g transform="translate(95.675 2.633)"><path d="M477.249,71.668V38.358h7.472a13.163,13.163,0,0,1,3.428.5,12.013,12.013,0,0,1,3.5,1.572,9.305,9.305,0,0,1,2.735,2.733,7.222,7.222,0,0,1,1.093,4.045,8.9,8.9,0,0,1-2.568,6.686q-2.568,2.5-7.47,2.5H480.2V71.668ZM480.2,53.537h4.52a10.548,10.548,0,0,0,3.806-.593,6.594,6.594,0,0,0,2.406-1.523,5.3,5.3,0,0,0,1.236-2.046,7.142,7.142,0,0,0,.356-2.166,4.717,4.717,0,0,0-.593-2.283A6.474,6.474,0,0,0,490.314,43a8.112,8.112,0,0,0-2.452-1.33,9.287,9.287,0,0,0-3.093-.5H480.2Z" transform="translate(-477.249 -37.976)" fill="#fff"/><path d="M488.994,71.668V38.358h2.95V53.489h19.226V38.358h3q0,8.374-.026,16.654t-.022,16.656h-2.95V56.3H491.944V71.668Z" transform="translate(-465.391 -37.976)" fill="#fff"/><path d="M505.925,38.358h3v33.31h-3Z" transform="translate(-448.296 -37.976)" fill="#fff"/><path d="M511.582,71.668V38.358h2.952v30.5h17.844v2.805Z" transform="translate(-442.585 -37.976)" fill="#fff"/><path d="M525.6,38.358h3v33.31h-3Z" transform="translate(-428.43 -37.976)" fill="#fff"/><path d="M531.235,71.668V38.358h7.472a13.123,13.123,0,0,1,3.424.5,12.026,12.026,0,0,1,3.5,1.572,9.315,9.315,0,0,1,2.737,2.733,7.221,7.221,0,0,1,1.091,4.045,8.907,8.907,0,0,1-2.566,6.686q-2.572,2.5-7.472,2.5h-5.235V71.668Zm2.95-18.131h4.522a10.555,10.555,0,0,0,3.806-.593,6.576,6.576,0,0,0,2.406-1.523,5.346,5.346,0,0,0,1.234-2.046,7.091,7.091,0,0,0,.36-2.166,4.7,4.7,0,0,0-.6-2.283A6.444,6.444,0,0,0,544.3,43a8.1,8.1,0,0,0-2.45-1.33,9.288,9.288,0,0,0-3.095-.5h-4.568Z" transform="translate(-422.742 -37.976)" fill="#fff"/><path d="M548.449,78.473V75.665a9.36,9.36,0,0,0,3.093-.691,7.137,7.137,0,0,0,2.45-1.664,7.5,7.5,0,0,0,1.594-2.594,9.772,9.772,0,0,0,.573-3.473V38.358h2.95V67.385a12.47,12.47,0,0,1-.832,4.711,9.889,9.889,0,0,1-2.261,3.424,10.069,10.069,0,0,1-3.378,2.144A12.232,12.232,0,0,1,548.449,78.473Z" transform="translate(-405.362 -37.976)" fill="#fff"/><path d="M556.808,54.968a1.91,1.91,0,0,1,.619-1.477,1.953,1.953,0,0,1,2.759,0,1.918,1.918,0,0,1,.619,1.477,1.841,1.841,0,0,1-.619,1.449,2.009,2.009,0,0,1-2.759,0A1.834,1.834,0,0,1,556.808,54.968Z" transform="translate(-396.922 -23.274)" fill="#fff"/><path d="M592.251,67.481l1.618,2.381A18.925,18.925,0,0,1,589.8,71.6a16.089,16.089,0,0,1-4.592.641,16.5,16.5,0,0,1-6.614-1.332,17.046,17.046,0,0,1-9.042-9.039,17.116,17.116,0,0,1,0-13.252,17.04,17.04,0,0,1,3.642-5.428,17.5,17.5,0,0,1,5.4-3.664,16.309,16.309,0,0,1,6.614-1.357,16.6,16.6,0,0,1,4.592.619,17.808,17.808,0,0,1,4.116,1.76c-.251.414-.522.818-.81,1.214s-.569.8-.856,1.214a13.235,13.235,0,0,0-7.042-1.949,13.373,13.373,0,0,0-5.45,1.117,14.068,14.068,0,0,0-4.449,3.067,14.943,14.943,0,0,0-3.019,4.546,13.708,13.708,0,0,0-1.121,5.5,13.95,13.95,0,0,0,1.093,5.519,14.448,14.448,0,0,0,3,4.5,14.279,14.279,0,0,0,4.449,3.043,13.889,13.889,0,0,0,9.162.621A14.273,14.273,0,0,0,592.251,67.481Z" transform="translate(-385.4 -38.168)" fill="#fff"/><path d="M595.627,72.048a14.455,14.455,0,0,1-4.642-.713,10.221,10.221,0,0,1-3.661-2.116,9.78,9.78,0,0,1-2.43-3.5,12.306,12.306,0,0,1-.878-4.805V38.358h2.948V60.772a9.518,9.518,0,0,0,.645,3.617,7.444,7.444,0,0,0,1.783,2.639,7.758,7.758,0,0,0,2.737,1.644,10.322,10.322,0,0,0,3.5.571,10.177,10.177,0,0,0,3.448-.571,8.08,8.08,0,0,0,2.759-1.644,7.244,7.244,0,0,0,1.807-2.639,9.476,9.476,0,0,0,.643-3.617V38.358h2.95V60.914a12.31,12.31,0,0,1-.88,4.805,9.606,9.606,0,0,1-2.45,3.5,10.519,10.519,0,0,1-3.686,2.116A14.309,14.309,0,0,1,595.627,72.048Z" transform="translate(-369.453 -37.976)" fill="#fff"/><path d="M598.789,71.668V38.358h7.472a13.163,13.163,0,0,1,3.428.5,12.015,12.015,0,0,1,3.5,1.572,9.33,9.33,0,0,1,2.735,2.733,7.22,7.22,0,0,1,1.091,4.045,9.243,9.243,0,0,1-1.807,5.852,8.741,8.741,0,0,1-5.233,3.093q1.809,3.856,3.64,7.735t3.69,7.779h-3.237q-1.806-3.856-3.615-7.663t-3.617-7.659a3.543,3.543,0,0,1-.593.048h-4.5V71.668Zm2.954-18.131h4.518a10.556,10.556,0,0,0,3.806-.593,6.579,6.579,0,0,0,2.406-1.523,5.3,5.3,0,0,0,1.236-2.046,7.078,7.078,0,0,0,.356-2.166,4.717,4.717,0,0,0-.593-2.283A6.482,6.482,0,0,0,611.852,43a8.077,8.077,0,0,0-2.45-1.33,9.278,9.278,0,0,0-3.093-.5h-4.566Z" transform="translate(-354.536 -37.976)" fill="#fff"/><path d="M610.913,71.668V38.358h7.47a13.138,13.138,0,0,1,3.426.5,12.047,12.047,0,0,1,3.5,1.572,9.337,9.337,0,0,1,2.737,2.733,7.221,7.221,0,0,1,1.091,4.045,9.266,9.266,0,0,1-1.8,5.852,8.747,8.747,0,0,1-5.235,3.093q1.809,3.856,3.639,7.735t3.688,7.779h-3.238q-1.806-3.856-3.615-7.663t-3.617-7.659a3.549,3.549,0,0,1-.595.048h-4.5V71.668Zm2.95-18.131h4.52a10.54,10.54,0,0,0,3.806-.593,6.56,6.56,0,0,0,2.406-1.523,5.355,5.355,0,0,0,1.238-2.046,7.134,7.134,0,0,0,.354-2.166,4.72,4.72,0,0,0-.593-2.283A6.451,6.451,0,0,0,623.974,43a8.076,8.076,0,0,0-2.45-1.33,9.278,9.278,0,0,0-3.093-.5h-4.568Z" transform="translate(-342.295 -37.976)" fill="#fff"/><path d="M623.627,38.358h3v33.31h-3Z" transform="translate(-329.458 -37.976)" fill="#fff"/><path d="M628.694,71.668V38.358h20.131v2.856H631.646V53.489h15.322V56.3H631.646V68.862H649.49v2.805Z" transform="translate(-324.342 -37.976)" fill="#fff"/><g transform="translate(0 48.509)"><path d="M477.249,62.847h5.537a12.874,12.874,0,0,1,4.624.832,11.316,11.316,0,0,1,3.806,2.393,11.544,11.544,0,0,1,2.58,3.758,12.321,12.321,0,0,1,.953,4.942,13.018,13.018,0,0,1-.7,4.114,10.658,10.658,0,0,1-2.259,3.824,11.95,11.95,0,0,1-4.061,2.82,15.089,15.089,0,0,1-6.1,1.1h-4.383Zm2.822,2.683V83.914h2.379a10.648,10.648,0,0,0,3.738-.645,8.618,8.618,0,0,0,5.01-4.739,9.438,9.438,0,0,0,.731-3.79,9.565,9.565,0,0,0-.731-3.806,8.592,8.592,0,0,0-5.01-4.757,10.6,10.6,0,0,0-3.738-.647Z" transform="translate(-477.249 -61.76)" fill="#fff"/><path d="M488.934,62.847h2.815V86.633h-2.815Z" transform="translate(-465.451 -61.76)" fill="#fff"/><path d="M514.412,63.393V88.267q-4.386-4.651-8.7-9.242t-8.7-9.242c-.116-.157-.219-.307-.324-.44s-.209-.285-.321-.442c.024.183.04.362.052.543s.026.36.05.543V87.179h-2.82V62.306q4.386,4.76,8.7,9.431t8.7,9.427c.113.159.221.307.323.442s.207.285.32.446c-.02-.185-.038-.364-.048-.551s-.03-.358-.05-.543V63.393Z" transform="translate(-460.69 -62.306)" fill="#fff"/><path d="M506.753,74.91a11.9,11.9,0,0,1,.951-4.7,12.458,12.458,0,0,1,2.6-3.893,12.278,12.278,0,0,1,3.858-2.631,11.913,11.913,0,0,1,9.429,0,12.368,12.368,0,0,1,6.523,6.523,11.958,11.958,0,0,1,0,9.429,12.255,12.255,0,0,1-6.523,6.451,12.12,12.12,0,0,1-9.429,0,12.118,12.118,0,0,1-3.858-2.6,12.333,12.333,0,0,1-2.6-3.854A11.87,11.87,0,0,1,506.753,74.91Zm2.822,0a9.366,9.366,0,0,0,2.733,6.678,9.685,9.685,0,0,0,2.976,2.022,9.2,9.2,0,0,0,7.273,0,9.583,9.583,0,0,0,2.97-2.022,9.367,9.367,0,0,0,2.737-6.678,9.275,9.275,0,0,0-.731-3.684,9.725,9.725,0,0,0-2.006-3.008,9.5,9.5,0,0,0-2.97-2.04,9.218,9.218,0,0,0-7.273,0,9.6,9.6,0,0,0-2.976,2.04,9.72,9.72,0,0,0-2,3.008A9.306,9.306,0,0,0,509.575,74.91Z" transform="translate(-447.46 -61.897)" fill="#fff"/><path d="M534.379,65.257q-.4.509-.8,1.021t-.794,1.021a6.089,6.089,0,0,0-.717-.593,6.538,6.538,0,0,0-1-.6,7.144,7.144,0,0,0-1.254-.456,5.758,5.758,0,0,0-1.479-.189,3.634,3.634,0,0,0-2.922,1.123,3.972,3.972,0,0,0-.953,2.651,2.87,2.87,0,0,0,.324,1.423,2.981,2.981,0,0,0,.85.973,5.422,5.422,0,0,0,1.19.661c.444.183.9.354,1.381.508.744.275,1.548.595,2.408.969A10.935,10.935,0,0,1,533,75.2a7.293,7.293,0,0,1,1.831,2.12,5.884,5.884,0,0,1,.736,3.023,6.489,6.489,0,0,1-.565,2.751,6.248,6.248,0,0,1-1.528,2.09,6.748,6.748,0,0,1-2.261,1.328,8.15,8.15,0,0,1-2.717.456,8.962,8.962,0,0,1-2.514-.356,11.407,11.407,0,0,1-2.243-.914,10.877,10.877,0,0,1-1.819-1.246,6.378,6.378,0,0,1-1.238-1.359l1.765-1.766a13.609,13.609,0,0,0,1.051,1,10.4,10.4,0,0,0,1.33.967,6.885,6.885,0,0,0,1.562.717,6.1,6.1,0,0,0,1.831.269,5.714,5.714,0,0,0,1.7-.255,4.533,4.533,0,0,0,1.443-.748,3.583,3.583,0,0,0,1-1.24,3.852,3.852,0,0,0,.374-1.732,3.5,3.5,0,0,0-.665-2.213,5.612,5.612,0,0,0-1.628-1.407,10.283,10.283,0,0,0-2.022-.9q-1.055-.341-1.837-.649-.609-.235-1.461-.645a6.561,6.561,0,0,1-1.614-1.105,6.255,6.255,0,0,1-1.31-1.73,5.688,5.688,0,0,1-.575-2.53,6.893,6.893,0,0,1,.307-2.243,5.548,5.548,0,0,1,1.119-2.042,5.741,5.741,0,0,1,2.072-1.493,7.709,7.709,0,0,1,3.163-.577,9.117,9.117,0,0,1,2.816.472A10.172,10.172,0,0,1,534.379,65.257Z" transform="translate(-433.392 -61.826)" fill="#fff"/><path d="M551.528,87.179H548.7q-.98-2.345-1.985-4.707c-.665-1.572-1.33-3.145-1.988-4.707h-7.474c-.657,1.561-1.318,3.135-1.989,4.707s-1.328,3.143-1.988,4.707h-2.823q2.656-6.252,5.269-12.436T541,62.306q2.646,6.255,5.265,12.438T551.528,87.179ZM541.3,69.677,541,68.56a24.585,24.585,0,0,1-1.188,3.3c-.478,1.063-.944,2.14-1.4,3.223h5.165c-.382-.906-.764-1.807-1.137-2.7S541.685,70.584,541.3,69.677Z" transform="translate(-423.528 -62.306)" fill="#fff"/><path d="M551.784,86.9a10.833,10.833,0,0,1-3.392-.51,7.721,7.721,0,0,1-2.721-1.513,6.746,6.746,0,0,1-1.8-2.494,8.584,8.584,0,0,1-.645-3.432V62.847h2.822v16a5.755,5.755,0,0,0,.426,2.293,4.617,4.617,0,0,0,1.184,1.686,5.239,5.239,0,0,0,1.819,1.035,7.678,7.678,0,0,0,4.62,0,5.221,5.221,0,0,0,1.823-1.035,4.864,4.864,0,0,0,1.2-1.686,5.617,5.617,0,0,0,.44-2.293v-16h2.824V78.954a8.349,8.349,0,0,1-.665,3.432,6.947,6.947,0,0,1-1.817,2.494,7.741,7.741,0,0,1-2.717,1.513A10.87,10.87,0,0,1,551.784,86.9Z" transform="translate(-410.636 -61.76)" fill="#fff"/><path d="M554.535,86.633V62.847h5.607a10.5,10.5,0,0,1,2.566.358,8.869,8.869,0,0,1,2.633,1.137,6.845,6.845,0,0,1,2.042,2.008,5.222,5.222,0,0,1,.812,2.954,6.932,6.932,0,0,1-1.272,4.262,6.046,6.046,0,0,1-3.722,2.261l5.1,10.806h-3.063l-4.994-10.6h-2.888v10.6Zm2.822-13.322h2.956a6.732,6.732,0,0,0,2.466-.386,4.611,4.611,0,0,0,1.545-.971,3.317,3.317,0,0,0,.814-1.288,4.266,4.266,0,0,0,.241-1.363,2.947,2.947,0,0,0-.392-1.445,4.2,4.2,0,0,0-1.055-1.22,5.1,5.1,0,0,0-1.594-.836,6.42,6.42,0,0,0-1.99-.3h-2.992Z" transform="translate(-399.217 -61.76)" fill="#fff"/><path d="M569.093,62.306q3.129,4.042,6.22,8.071t6.218,8.073q3.126-4.051,6.22-8.073t6.218-8.071V87.179h-2.821V71.213c.022-.185.04-.366.052-.549s.026-.362.048-.545q-2.243,3.334-4.757,6.475t-4.96,6.338q-2.279-2.99-4.556-5.947t-4.55-5.949l-.611-.918c.022.183.036.37.048.545s.03.364.052.549V87.179h-2.821Z" transform="translate(-384.519 -62.306)" fill="#fff"/><path d="M593.091,86.9a10.877,10.877,0,0,1-3.4-.51,7.767,7.767,0,0,1-2.719-1.513,6.72,6.72,0,0,1-1.8-2.494,8.516,8.516,0,0,1-.645-3.432V62.847h2.822v16a5.826,5.826,0,0,0,.422,2.293,4.649,4.649,0,0,0,1.188,1.686,5.239,5.239,0,0,0,1.819,1.035,7.679,7.679,0,0,0,4.62,0,5.157,5.157,0,0,0,1.817-1.035,4.852,4.852,0,0,0,1.21-1.686,5.651,5.651,0,0,0,.438-2.293v-16h2.824V78.954a8.348,8.348,0,0,1-.663,3.432,7,7,0,0,1-1.817,2.494,7.74,7.74,0,0,1-2.721,1.513A10.835,10.835,0,0,1,593.091,86.9Z" transform="translate(-368.931 -61.76)" fill="#fff"/><path d="M608.742,65.257c-.271.34-.538.679-.8,1.021s-.526.679-.8,1.021a5.76,5.76,0,0,0-.715-.593,6.668,6.668,0,0,0-1-.6,7.1,7.1,0,0,0-1.26-.456,5.755,5.755,0,0,0-1.479-.189,3.61,3.61,0,0,0-2.916,1.123,3.943,3.943,0,0,0-.955,2.651,2.894,2.894,0,0,0,.319,1.423,2.987,2.987,0,0,0,.852.973,5.394,5.394,0,0,0,1.192.661c.44.183.9.354,1.373.508.748.275,1.553.595,2.416.969a10.905,10.905,0,0,1,2.393,1.433,7.291,7.291,0,0,1,1.833,2.12,5.881,5.881,0,0,1,.734,3.023,6.456,6.456,0,0,1-.563,2.751,6.252,6.252,0,0,1-1.527,2.09,6.79,6.79,0,0,1-2.257,1.328,8.213,8.213,0,0,1-2.723.456,8.962,8.962,0,0,1-2.514-.356A11.406,11.406,0,0,1,598.1,85.7a10.692,10.692,0,0,1-1.817-1.246,6.286,6.286,0,0,1-1.24-1.359l1.765-1.766a13.04,13.04,0,0,0,1.055,1,10.359,10.359,0,0,0,1.326.967,6.981,6.981,0,0,0,1.563.717,6.1,6.1,0,0,0,1.833.269,5.71,5.71,0,0,0,1.7-.255,4.576,4.576,0,0,0,1.443-.748,3.557,3.557,0,0,0,1-1.24,3.8,3.8,0,0,0,.374-1.732,3.485,3.485,0,0,0-.663-2.213,5.6,5.6,0,0,0-1.63-1.407,10.3,10.3,0,0,0-2.022-.9c-.7-.227-1.314-.444-1.837-.649q-.615-.235-1.457-.645a6.5,6.5,0,0,1-1.616-1.105,6.212,6.212,0,0,1-1.31-1.73,5.655,5.655,0,0,1-.577-2.53,6.882,6.882,0,0,1,.3-2.243,5.532,5.532,0,0,1,3.2-3.535,7.677,7.677,0,0,1,3.159-.577,9.128,9.128,0,0,1,2.818.472A10.213,10.213,0,0,1,608.742,65.257Z" transform="translate(-358.313 -61.826)" fill="#fff"/><path d="M604.957,86.633V62.847H619.6V65.53H607.773v7.781h10.5V76h-10.5v7.956h12.3v2.681Z" transform="translate(-348.309 -61.76)" fill="#fff"/><path d="M623.794,86.9a10.85,10.85,0,0,1-3.4-.51,7.73,7.73,0,0,1-2.715-1.513,6.726,6.726,0,0,1-1.8-2.494,8.552,8.552,0,0,1-.645-3.432V62.847h2.818v16a5.826,5.826,0,0,0,.424,2.293,4.684,4.684,0,0,0,1.192,1.686,5.24,5.24,0,0,0,1.819,1.035,7.679,7.679,0,0,0,4.62,0,5.23,5.23,0,0,0,1.817-1.035,4.894,4.894,0,0,0,1.206-1.686,5.65,5.65,0,0,0,.442-2.293v-16H632.4V78.954a8.379,8.379,0,0,1-.665,3.432,6.962,6.962,0,0,1-1.813,2.494,7.776,7.776,0,0,1-2.721,1.513A10.842,10.842,0,0,1,623.794,86.9Z" transform="translate(-337.929 -61.76)" fill="#fff"/><path d="M626.667,62.306q3.123,4.042,6.212,8.071T639.1,78.45q3.126-4.051,6.218-8.073t6.218-8.071V87.179h-2.822V71.213c.026-.185.042-.366.052-.549s.032-.362.054-.545q-2.243,3.334-4.757,6.475T639.1,82.933q-2.276-2.99-4.556-5.947t-4.552-5.949l-.611-.918c.024.183.04.37.052.545s.026.364.048.549V87.179h-2.815Z" transform="translate(-326.389 -62.306)" fill="#fff"/></g></g><g transform="translate(0 0)"><path d="M448.321,70.413a9.52,9.52,0,0,0,1.835-.876c.205-.1-.291-.456-.44-.649s-.108-.719-.147-.961-.241-.161-.529-.4a5.756,5.756,0,0,0-1.813-.5c-.191,0-.93.133-1.067.5a2.184,2.184,0,0,1-.583.971,2.373,2.373,0,0,0,.448,1.8C446.661,70.94,447.592,70.612,448.321,70.413Z" transform="translate(-413.574 -6.396)" fill="#fff"/><path d="M447.8,68.019a1.328,1.328,0,0,0,1.27,1.1,2.263,2.263,0,0,0,1.712-.418c.241-.3-.151-.822-.6-1.031a4.268,4.268,0,0,0-2.152-.145C447.658,67.739,447.845,67.683,447.8,68.019Z" transform="translate(-411.316 -5.979)" fill="#fff"/><path d="M445.559,69.767c.08.673.054,1.139.271.864s.149-.468.054-1.162a2.514,2.514,0,0,0-.967-1.626c-.2-.056-.323.171-.123.663S445.481,69.094,445.559,69.767Z" transform="translate(-414.444 -5.581)" fill="#fff"/><path d="M442.373,58.166c-.44-.127-.854-.243-1.224-.346a4.315,4.315,0,0,1,.86,1.107c.92,1.622,2.195,4.634,2.128,6.539a3.871,3.871,0,0,0,.193,1.869.847.847,0,0,1,.084-.05c.247-1.489.826-4.082-.639-6.592C443.207,59.7,442.733,58.847,442.373,58.166Z" transform="translate(-418.022 -15.694)" fill="#fff"/><path d="M451.572,68.14c.173.1.249.215.665,0,.048-.026.088-.014.1-.072-.189-.177-.89-.639-1.045-.324C451.218,67.891,451.4,68.039,451.572,68.14Z" transform="translate(-407.797 -5.78)" fill="#fff"/><path d="M450.218,68.589c.187-.006.9-.153,1.238-.181s.555-.1.432-.316-.123-.165-.537-.2-1.3-.418-1.515-.181a.947.947,0,0,0-.307.5C449.42,68.525,450.027,68.593,450.218,68.589Z" transform="translate(-409.575 -5.783)" fill="#fff"/><path d="M436.1,63.725c-.205.2-.468.512-.756.86a10.777,10.777,0,0,1,1.744-1.425,13.225,13.225,0,0,0,2.663-2.028.818.818,0,0,1,.229-.3.351.351,0,0,1,.012-.135,1.065,1.065,0,0,0-.42.135A22.986,22.986,0,0,0,436.1,63.725Z" transform="translate(-423.878 -12.792)" fill="#fff"/><path d="M443.266,58.363c-.358-.08-.713-.175-1.073-.261a13.443,13.443,0,0,1,2.42,6.087c.052.854.113,1.471.177,1.923.211-.139.426-.271.637-.412a5.571,5.571,0,0,0-.382-3.493A23,23,0,0,0,443.266,58.363Z" transform="translate(-416.968 -15.409)" fill="#fff"/><path d="M454.663,53.1l.024.012a.24.24,0,0,1,0-.066Z" transform="translate(-404.378 -20.511)" fill="#fff"/><path d="M448.206,59.18a1.227,1.227,0,0,1,.177-.589.766.766,0,0,0,.078-.4,3.446,3.446,0,0,1-.637.289C447.961,58.728,448.085,58.961,448.206,59.18Z" transform="translate(-411.283 -15.315)" fill="#fff"/><path d="M447.03,58.557c.263.6.541,1.256.715,1.718.2-.155.392-.3.565-.426-.115-.456-.235-.951-.368-1.421A9.071,9.071,0,0,1,447.03,58.557Z" transform="translate(-412.084 -15.08)" fill="#fff"/><path d="M429.641,36.858v80.014h80.008V36.858ZM502.7,92.043c-3.229,2.643-9.025,3.537-10.257,3.426-.484-.046-2.96-.358.388-.565a18.425,18.425,0,0,0,8.187-2.783c2.55-1.853,8.5-6.889,5.362-16-2.4-6.965-14.389-7.331-23.081-6.63-.072.215-.422.305-.673.4a1.228,1.228,0,0,1-.965-.052,2.5,2.5,0,0,1-1.037.2c.107.318.2.48-.03.486a7.251,7.251,0,0,1-.965.181c.2.3.038.271.038.271a6.675,6.675,0,0,0-.86-.109.807.807,0,0,1,.133.131c.589.661.2.623.2.623a9.643,9.643,0,0,0-1.043-.1c.518.48.318.625-.02.609a9.762,9.762,0,0,0-1.334-.006c.782.551.591.752.209.764a7.4,7.4,0,0,0-1.654.175,1.78,1.78,0,0,1,.34.159c.78.458.621.657.271.691a6.446,6.446,0,0,0-1.541.291,1.32,1.32,0,0,0,.183.269c.129.1.115-.018.38.131.293.163-.086.92-.426.92s-.6-.557-.866-.131.4.287.171.844-.107.5-.577.675l-.04.006a5.622,5.622,0,0,1-1.459,2.375A14.516,14.516,0,0,1,469,81.3c.235.412-.165,1.131-1.111,1.684.074.406.026.7-.211.693a2.267,2.267,0,0,1-.776-.149c-.175.107-.368.219-.573.346.141.615.1,1.109-.2,1.055a2.435,2.435,0,0,1-.866-.394c-.155.094-.311.195-.468.293a.8.8,0,0,1-.018.872c-.364.48-.6.384-.932.1a3.1,3.1,0,0,0-.247-.215c-.137.092-.279.183-.42.275a3.772,3.772,0,0,1,.225,1.15c-.032.486-.8.844-1.547.155a1.077,1.077,0,0,1-.211-.32l-.171.109a2.294,2.294,0,0,1,.129.8s.43,1.3-.557,1.061c-.872-.213-1.079-.446-1.228-.8a1.724,1.724,0,0,0-.2.135c.189.583.34,1,.34,1-.072.368-.591,1.083-1.121.766a2.049,2.049,0,0,1-.681-.627,1.64,1.64,0,0,1,.2.995c-.034.3-.639.939-1.027.7-.265-.157-.392-.512-.671-.856a5.131,5.131,0,0,1-.287.876c-.167.414-.311.947-1.027.7a2.163,2.163,0,0,1-.687-.434c-.008.034-.014.074-.026.121,0,0-.808.838-1.316.406a.287.287,0,0,1-.062-.1,1.263,1.263,0,0,1-.135.754,2.547,2.547,0,0,1-1.71.078c-.074,0-.219,0-.388,0a1.724,1.724,0,0,1-.147.241s-.531.846-.886.756a.585.585,0,0,1-.245.225,1.961,1.961,0,0,1-.213.074c.145.088.239.189.245.269.024.239-.024,1.188-.336,1.379a1.469,1.469,0,0,1-.5.267l.038.04a6.9,6.9,0,0,1,.474.756c.356.689.135.862-.209.953a.871.871,0,0,1,.6.478c.255.428.727,1.232.478,1.509-.006.014-.016.014-.02.028a.941.941,0,0,1,.434.2c.378.316.864.717.961,1.069a.343.343,0,0,1,.312-.086c.408.02.665-.1.969.279.113.133.229.253.332.37a2.6,2.6,0,0,1,.623-.074,5.971,5.971,0,0,1,1.379.229.673.673,0,0,1,.147.044.138.138,0,0,1,.042-.032,6.112,6.112,0,0,1,1.242-.629.87.87,0,0,1,.289-.084,2.79,2.79,0,0,1,.34-.878c.1-.119.247-.384.408-.563a.148.148,0,0,1,.018-.072c.131-.249.08-.832.311-1.226.034-.064.066-.121.1-.177-.133-.336-.253-.645-.028-.872.243-.245.034.058.772-.336a2.732,2.732,0,0,1,1.8-.418,3.586,3.586,0,0,0,1.447-.068c.609-.137,1.031-.51,1.795-.259a9.979,9.979,0,0,0,1.905.687c.707.086,2.466.653,3.183.8s3.045.7,3.762.846a2.337,2.337,0,0,1,1.32.591c.291.279,1.109,1.115.9,1.431s-.44.221-1.519.217-1.141.269-2.088.287a15.454,15.454,0,0,0-4,.583,20.2,20.2,0,0,1-3.5.689c-.5.086-.836.145-1.141.229a17.851,17.851,0,0,1,3.875.46c1.431.492,2.8,1.033,4.287,1.453a17.625,17.625,0,0,0,2.253.595c.151-.012-.086.314-.376.434a1.4,1.4,0,0,1-.977.149c-.492-.09-2.767-.527-3.951-.715s-3.682-.4-4.815-.541a12.513,12.513,0,0,1-3.378-.818c-.553-.342-1.119-.657-.575-.88.175-.068.229-.187.442-.374-.273-.48-.434-.894-.627-1-.273-.137-.448-.816-.539-.643a1.9,1.9,0,0,1-.74.934,1.56,1.56,0,0,0-.348.269.782.782,0,0,1-.426.683c-.4.187-.677.207-.918.438a.742.742,0,0,1-.9.207.259.259,0,0,1-.153-.129,5.633,5.633,0,0,1-1.133-.092c-.406-.044-.617-.016-.744-.052a.24.24,0,0,1-.109.036.832.832,0,0,1-.828-.259c-.44-.366-.655-.253-.81-.689-.014-.038-.022-.078-.032-.117a.359.359,0,0,1-.428.137c-.35-.131-.585-.5-.9-.854s-.717-.633-.748-.934a.3.3,0,0,1,.1-.245,1.5,1.5,0,0,1-.79-.736c-.382-.617-.482-.8-.4-1.087a.576.576,0,0,1,.149-.235.692.692,0,0,1-.2-.115c-.406-.307-.607.028-.595-.725s.086-.653-.048-.995c-.058-.151.151-.307.438-.38-.135-.024-.195-.163-.129-.824.143-1.334-.175-.987.328-1.178.028-.006.064-.018.1-.024-.33-.255-.6-.512-.135-1.057a2.9,2.9,0,0,1,.665-.647,1.485,1.485,0,0,1-.623-1.658c.32-.784,1.176-.426.931-.918a16.47,16.47,0,0,0-1.226-2.138c-.326-.426-.935-1.15-1.23-1.64a1.187,1.187,0,0,1-.235.195,32.821,32.821,0,0,0-3.818,2.781,9.076,9.076,0,0,1-2.566,1.72,3.408,3.408,0,0,1-.878.87c-.042.117-.092.2-.151.2a12.67,12.67,0,0,1-3.129-.249,14.815,14.815,0,0,0-1.411-.677c-.711-.217-.734-.482-.8-.6a8.439,8.439,0,0,0-.476-.878c-.241-.364-.553-.828-.752-1.1s-.229-.215-.261-.4-.3-.283-.376-.589a2.959,2.959,0,0,1,.066-1.457,2.068,2.068,0,0,1,.946-1.059c.348-.1.814-.2,1.055-.032s-.022.149-.1.159-.947.255-.993.945.119.92.318.993a.7.7,0,0,1,.43.629,2.75,2.75,0,0,0,.655,1.807,2.029,2.029,0,0,1-.09-.559c0-.778,1.087-1.572,1.568-1.608a1.588,1.588,0,0,1,.844.066s.05.129-.07.117a2.58,2.58,0,0,0-1.115.547.833.833,0,0,0-.169.955.97.97,0,0,1,.53.137c.271.163.171.508.386.8a1.907,1.907,0,0,0,.643.482,1.814,1.814,0,0,1,.3.175c.346-.223.517-.551.215-1.5-.36-1.135.03-1.252-.078-1.616a3.959,3.959,0,0,0-.293-.995c-.169-.259-.318-.259-.428-.482s-.086-.613-.215-.736a.682.682,0,0,0-.651-.245,1.381,1.381,0,0,0-.518.261c-.058.026-.1.02-.046-.121s.631-.888,1.338-.675a1.53,1.53,0,0,1,.977.812c.094.117.183.123.231.382a3.583,3.583,0,0,0,.219,1.073,1.317,1.317,0,0,1,.241.6c.042.245.127.516.195.806s-.014.595.092.834-.129.567.078.778c.149.155.428.535.637.742.153-.115.36-.269.671-.512a69.026,69.026,0,0,0,4.891-5.185c.894-.991.716-1.077,1.306-.924a1.951,1.951,0,0,1,.591.555,16.491,16.491,0,0,1,2.217,2.89c.561.8.858,1.863,1.306,2.365a8.44,8.44,0,0,0,.058-3.808c-.4-.979-.961-2.406-.414-1.71a5.835,5.835,0,0,1,1.19,3.6c-.044.729-.111,1.586-.167,2.359a8.614,8.614,0,0,0,1.015.452,6.532,6.532,0,0,0,.42-3.674,16.9,16.9,0,0,0-2.072-4.759c-.313-.521-.012-.842.446-.3s2.289,3.344,2.377,5.165a28.507,28.507,0,0,0,.092,3.8,1.532,1.532,0,0,0,.07.193c.064-.032.137-.06.2-.092-.034-2.072.129-5.346-.245-6.2a31.572,31.572,0,0,0-2.182-4.035c-.41-.539-.721-1.507.231-.36S453.6,83.42,453.68,84.8a34.7,34.7,0,0,0,.533,4.612,9.494,9.494,0,0,0,.541-4.723,19.309,19.309,0,0,0-2.558-5.842.5.5,0,0,1-.074-.07,3.043,3.043,0,0,1-.876-.376,2.113,2.113,0,0,1-.408-1.646,11.282,11.282,0,0,1,.555-1.919c.249-.5,1.632-9.55,1.694-10.758.044-.713-.113-1.568-.052-2.074-2.024.653-9.377,1.9-9.548,2.176-.191.316-.84.474-1.131.559a.917.917,0,0,1-.828-.593,18.213,18.213,0,0,0-2.243-1.678c-.623-.313-.575-.342-.6-.541a.164.164,0,0,1-.127.042c-.221-.048-.227.04-.454-.33a1.922,1.922,0,0,0-.583-.581c-.314-.261-.344-.283-.5-.318s-.492.01-.573-.3a1.028,1.028,0,0,1-.022-.139c-.1.028-.243,0-.342-.269a2.409,2.409,0,0,0-.531-.81.585.585,0,0,1-.181-.44.177.177,0,0,0,.008-.058.514.514,0,0,1-.111-.442c.078-.159-.05-.639.183-1.037l.006-.006a.143.143,0,0,1-.076-.1,1.928,1.928,0,0,1,.237-1.314c.537-.589.83-.545,1.121-.518s.44.273.342.263a.632.632,0,0,0-.583.342c-.141.261.064.613-.032.9-.044.145-.259.446-.368.438.026.147-.135.334-.169.571s.245.273.277.533a.2.2,0,0,1-.026.123.154.154,0,0,1,.06.058c.109.155.1.448.227.623a3.685,3.685,0,0,0,.408.316.537.537,0,0,1,.464.382,2.306,2.306,0,0,0,.985.818c.2.052.51.008.667.179.054-.01.113-.018.171-.03a.7.7,0,0,0,.046-.3c-.05-.189-.472-.384-.41-.736s0-.531.1-.7a.464.464,0,0,0-.022-.436.3.3,0,0,1,.1-.3c.046-.046-.04-.064,0-.213a1.333,1.333,0,0,1,1.18-.76c.432.048.645.169.77.394s.082.237-.034.157a.528.528,0,0,0-.36-.09.818.818,0,0,0-.5.253c-.133.161.155.416.032.569s-.249.217-.2.235a.486.486,0,0,1,.145.446c-.028.245-.07.3-.2.388s.064.655.227.953a1.224,1.224,0,0,1,.157.673.5.5,0,0,1,.338.271,3.943,3.943,0,0,0,.38.541c.048-.2-.094-.454-.1-.651-.008-.239.183-.03.1-.257a3.038,3.038,0,0,1,.515-1.316c.107-.115.243-.3.143.014a4.823,4.823,0,0,0,.024,1.206c0,.135.1.04-.078.4s.022.571.046.93.2.452.382.766a1.431,1.431,0,0,0,.227.185l.11.074a1.371,1.371,0,0,0,.633-.32,1.528,1.528,0,0,1,1.238-.37c.92.123,2.538-.647,4.162-.894,1.375-.215,4.114-.981,5.046-1.045a.832.832,0,0,1,.782-.107c.611.241.145,1.125-.179,3.021s-.446,13.163-.448,13.4c0,.03,0,.058-.006.082.026.028.052.052.08.08a10.852,10.852,0,0,0,3.354.969c-.046-.072-.08-.131-.1-.163-.191-.281.111-.575.434-.3a3.429,3.429,0,0,1,.44.591c.593.092,1.2.183,1.766.237a7.054,7.054,0,0,0-.671-1.174c-.305-.382.541-.3.764-.03a11.709,11.709,0,0,1,.631,1.276h.02a10.816,10.816,0,0,0,1.423.026c-.217-.5-.4-.912-.5-1.141-.233-.533.448-.175.906.633a4.481,4.481,0,0,1,.229.468c.412-.028.814-.078,1.2-.135-.026-.33.167-.366.36-.052.342-.052.663-.109.981-.171-.241-.6.123-.719.438-.088.34-.07.659-.139.949-.209-.131-.207-.267-.426-.4-.627a3.661,3.661,0,0,1-.842-.227,36.862,36.862,0,0,1-4.992-3.018c-.561-.374-4.883-5.3-4.976-5.951-.267-.342-.255-.559.068-1.148a4.191,4.191,0,0,1,1.966-1.594c.531-.33,7.671-8.495,8.623-9.53a6.3,6.3,0,0,0,1.093-1.951c-2.514.358-9.172.742-9.363.987-.233.289-.9.358-1.192.4l-.028-.006a.394.394,0,0,1-.434.028,16.026,16.026,0,0,1-1.694-1.4,11.9,11.9,0,0,0-1.718-.928c-.434-.111-.37-.247-.677-.209s-.1-.038-.428-.006-.4-.137-.621-.078-.231-.082-.519.014-.125.163-.46.3-.2.074-.235.225a1.133,1.133,0,0,1-.5.756.955.955,0,0,1-.766.07c-.149-.07-.078-.07-.014-.125a1.271,1.271,0,0,0,.462-.45c.115-.253,0-.157.02-.271s.177-.2.229-.322.275-.424.4-.406.639-.328.824-.271a.444.444,0,0,0,.179-.014c-.024-.006-.044-.016-.07-.024a2.16,2.16,0,0,0-.961-.151c-.354.026-.394.064-.482-.058a.274.274,0,0,1-.177-.006c-.169-.086-.679.064-1.111-.181-.036-.022-.072-.048-.1-.068a.2.2,0,0,1-.056.02c-.207.048-.721-.281-.912-.5a2,2,0,0,1-.456-.705c-.048-.2-.085-.326-.018-.372s.008-.022.167.221a.751.751,0,0,0,.611.261,2.057,2.057,0,0,1,.408.068c.135.058.39.213.374.318,0,.016-.006.04-.012.062.153-.026.356.141.6.177s.287-.265.567-.3a.321.321,0,0,1,.3.189.366.366,0,0,1,.251-.092c.191.028.406.223.613.247.179.018.446-.125.645-.1.026-.008.052-.026.08-.036a.554.554,0,0,1,.639.173,2.336,2.336,0,0,0,1.212.412c.241-.024.583-.231.792.018a1.1,1.1,0,0,1,.466,0,.384.384,0,0,0,0-.2c-.064-.191-.5-.35-.47-.707s-.042-.529.036-.705a.472.472,0,0,0-.064-.432.286.286,0,0,1,.076-.3c.04-.058-.048-.064-.018-.215a1.329,1.329,0,0,1,1.109-.858c.432.012.653.111.8.324s.1.231-.016.161a.5.5,0,0,0-.366-.054.808.808,0,0,0-.482.289c-.115.173.193.406.084.567s-.195.215-.141.227.155.227.149.464a.85.85,0,0,1-.177.579c-.123.1.131.464.318.75s.287.681.175.778a.158.158,0,0,1-.1.02.449.449,0,0,1,.137.193,3.4,3.4,0,0,0,.334.573c.074-.2-.052-.46-.046-.661.012-.233.185-.012.127-.247s.5-1.16.617-1.264.265-.279.143.02a4.815,4.815,0,0,0-.076,1.206c-.014.135.09.05-.111.4s-.022.565-.028.926a1.1,1.1,0,0,0,.227.625c.571-.235.816-.131,1.115-.378.322-.265.137-.368,1.029-.109s2.844-.4,4.484-.436c1.606-.038,5.275-.547,5.565-.3a.48.48,0,0,1,.458.313c.324.621-.631,1.2-2.134,2.86-1.338,1.471-7.47,10.358-8.907,12.456.289.8,2.524,3.133,4.206,4.512A19.229,19.229,0,0,0,466.838,76a2.483,2.483,0,0,0,1.379-.3c.7-.484-.418-1.9-.607-2.012s-.882-.034-1.224-.7.719-1.28,1.137-1.911.762-1.111,1.141-.991a1.621,1.621,0,0,1,.5,1.877c-.3.832.541,2.625,1.049,3.633.1.191.557-.153.971-.583.709-.744.209-1.119.892-1.3a1.416,1.416,0,0,1,.756-.01,2.408,2.408,0,0,1,.352-.287.318.318,0,0,1,0-.1c.078-.312.372-.149.482-.631s-.291-.209-.772-1.22.165-1.69.388-1.483.191,1.612.943,1.471c.125-.026.2.044.237.161a.8.8,0,0,0,.131-.257c.161-.527-.191-.943-.635-2.092s.044-.675.269-.43.532,1.214,1.075,1.214c.328,0,.306.446.249.874a.658.658,0,0,0,.472-.4c.219-.466-.066-.882-.342-1.979s.127-.623.314-.384.346,1.172.87,1.212c.305.024.231.434.121.834a.528.528,0,0,0,.41-.3c.247-.412.03-.848-.117-1.923s.179-.577.328-.322.2,1.16.671,1.264c.03.012.05.024.07.03-.026-.253-.1-.581-.151-1.055-.1-.9.159-.478.277-.259s.145.971.533,1.069c.137.036.157.161.129.316a.757.757,0,0,0,.04-1.043c-.484-.464.082-.434.35-.446s.737.639.693.932a2.291,2.291,0,0,1-.08.326c.11-.119.215-.042.334-.3.153-.332-.392-.448-.249-.7a.988.988,0,0,1,1.081-.384c.34.185.223.74.01.977-.086.1-.107.143-.086.179.086-.042.181-.086.275-.125a1.919,1.919,0,0,1,.3-.35c.217-.247-.169-.4.187-.565s.689-.5,1.025-.374.269.4-.237.836l-.046.042a3.7,3.7,0,0,1,.434-.062c13.706-.762,21.775,1.393,24.19,7.323C510.431,82.861,506.651,88.8,502.7,92.043Z" transform="translate(-429.641 -36.858)" fill="#fff"/><path d="M445.624,58.619h-.9a3.76,3.76,0,0,1-.565-.078,14.172,14.172,0,0,1,1.487,4.242c.042.344.088.645.141.892.267-.187.535-.37.788-.553a18.863,18.863,0,0,0-.766-4.066C445.747,58.9,445.684,58.758,445.624,58.619Z" transform="translate(-414.981 -14.966)" fill="#fff"/><path d="M444.2,58.558c-.279-.056-.579-.121-.9-.193a37.086,37.086,0,0,1,1.919,5.8c.034.187.078.384.125.587.185-.121.364-.239.541-.366a12.124,12.124,0,0,0-.653-3.324A24.132,24.132,0,0,0,444.2,58.558Z" transform="translate(-415.854 -15.143)" fill="#fff"/><path d="M446.589,58.561c-.488.02-.965.03-1.387.036a11,11,0,0,1,.874,2.984,1.5,1.5,0,0,0,.221.979q.374-.268.73-.523a7.4,7.4,0,0,0-.191-2.8C446.755,59.013,446.673,58.78,446.589,58.561Z" transform="translate(-413.93 -14.946)" fill="#fff"/><path d="M446.2,58.581c.235.673.452,1.34.611,1.8a5.83,5.83,0,0,0,.36.852c.173-.131.346-.255.506-.382-.117-.7-.253-1.594-.412-2.337C446.921,58.545,446.558,58.569,446.2,58.581Z" transform="translate(-412.922 -14.988)" fill="#fff"/></g></g></g></svg>